<?xml version="1.0" standalone="no"?>
<!DOCTYPE svg PUBLIC "-//W3C//DTD SVG 20010904//EN"
 "http://www.w3.org/TR/2001/REC-SVG-20010904/DTD/svg10.dtd">
<svg version="1.0" xmlns="http://www.w3.org/2000/svg"
 width="1024.000000pt" height="1024.000000pt" viewBox="0 0 1024.000000 1024.000000"
 preserveAspectRatio="xMidYMid meet">
<metadata>
Created by potrace 1.14, written by Peter Selinger 2001-2017
</metadata>
<g transform="translate(0.000000,1024.000000) scale(0.100000,-0.100000)"
fill="#000000" stroke="none">
<path d="M7965 10006 c-126 -27 -233 -82 -318 -165 -84 -82 -129 -176 -153
-322 -30 -186 24 -375 142 -499 31 -33 62 -60 67 -60 6 0 26 -12 45 -27 145
-110 374 -137 552 -63 88 36 200 111 245 162 108 126 162 350 125 523 -18 87
-85 220 -137 276 -124 132 -387 213 -568 175z"/>
<path d="M5000 9740 c-36 -19 -92 -53 -125 -76 -33 -22 -85 -50 -115 -63 -50
-20 -124 -61 -237 -130 -23 -14 -63 -39 -90 -54 -188 -110 -236 -137 -240
-137 -8 0 -265 -145 -306 -173 -21 -14 -59 -36 -85 -48 -26 -12 -49 -26 -52
-30 -3 -5 -50 -29 -104 -55 -53 -25 -148 -76 -209 -113 -62 -37 -146 -84 -187
-105 -41 -21 -104 -55 -140 -76 -118 -70 -153 -90 -310 -171 -85 -44 -172 -91
-192 -105 -21 -13 -40 -24 -44 -24 -3 0 -23 -13 -43 -30 -21 -16 -69 -43 -107
-61 -38 -17 -82 -41 -99 -53 -16 -12 -43 -27 -60 -35 -64 -28 -154 -77 -251
-137 -56 -33 -141 -81 -190 -104 -49 -24 -105 -53 -124 -65 -33 -20 -138 -78
-240 -132 -25 -13 -76 -44 -115 -69 -38 -24 -128 -73 -200 -108 -71 -35 -155
-80 -185 -100 -30 -20 -58 -36 -63 -36 -5 0 -21 -8 -35 -19 -15 -10 -83 -48
-152 -84 -122 -63 -150 -78 -261 -143 -30 -17 -89 -50 -132 -73 l-77 -42 0
-2002 0 -2002 43 -24 c23 -13 66 -36 95 -52 30 -15 59 -32 65 -37 7 -6 46 -28
87 -50 41 -22 97 -51 123 -66 26 -14 52 -26 56 -26 5 0 66 -34 137 -75 71 -41
152 -86 179 -100 28 -14 65 -37 84 -50 19 -14 41 -25 50 -25 9 -1 52 -23 96
-51 44 -27 95 -56 114 -65 19 -8 40 -21 47 -28 7 -7 109 -64 226 -127 117 -62
225 -120 240 -129 77 -43 169 -98 215 -127 29 -18 55 -33 58 -33 4 0 19 -9 35
-20 15 -11 88 -50 161 -88 74 -37 152 -79 174 -94 44 -30 148 -90 240 -139 33
-17 78 -44 100 -59 22 -15 63 -38 90 -52 28 -13 95 -49 150 -79 55 -31 140
-78 189 -105 105 -58 123 -68 196 -116 30 -19 123 -71 205 -114 83 -43 170
-92 195 -109 25 -18 95 -58 155 -90 61 -32 133 -73 160 -90 28 -18 99 -58 160
-89 60 -32 112 -61 115 -65 3 -4 25 -19 50 -32 77 -44 117 -67 157 -92 37 -23
240 -134 348 -191 l54 -28 73 37 c40 21 86 47 102 58 16 11 76 45 135 75 203
106 237 125 287 163 18 15 68 43 111 64 43 21 134 70 203 110 69 39 154 86
190 105 36 18 84 45 106 60 48 32 129 77 264 147 52 27 127 70 166 96 39 26
75 47 80 47 5 0 27 12 49 27 22 15 76 46 120 68 112 58 322 173 364 200 20 12
81 48 136 80 55 32 116 68 135 80 63 40 103 62 240 132 134 69 380 212 411
239 9 8 70 41 135 74 65 33 159 86 208 117 84 55 114 72 261 152 57 31 126 71
170 99 11 7 36 20 55 28 19 9 49 26 65 38 17 13 50 32 75 43 25 11 52 26 60
35 8 8 58 35 110 61 52 25 113 56 135 69 22 12 106 59 186 104 80 46 157 88
172 95 l27 12 0 1975 c0 1775 -2 1977 -16 2007 -17 36 -66 75 -128 100 -22 9
-54 27 -70 39 -17 13 -44 30 -61 38 -92 46 -277 144 -339 180 -39 23 -96 54
-126 71 -30 16 -78 42 -106 58 -73 41 -112 35 -129 -21 -9 -30 -70 -112 -117
-157 -40 -38 -167 -107 -226 -123 -97 -25 -212 -13 -316 35 -49 22 -152 105
-187 149 -118 151 -115 430 7 575 23 28 25 34 13 46 -36 35 -123 90 -219 137
-58 28 -112 57 -120 64 -8 6 -53 34 -100 61 -47 28 -115 69 -152 91 -37 23
-143 81 -235 129 -93 48 -172 92 -178 99 -10 13 -47 34 -183 105 -41 22 -85
48 -99 59 -14 11 -30 20 -36 20 -5 0 -35 17 -66 37 -31 21 -105 63 -166 94
-160 81 -245 129 -285 160 -20 15 -72 45 -115 67 -102 51 -177 91 -240 128
-78 45 -107 62 -143 79 -18 9 -83 47 -145 86 -62 39 -159 93 -217 121 -58 28
-118 60 -134 71 -15 11 -69 41 -120 66 l-91 46 -65 -35z m-2835 -3560 c83 -12
222 -52 285 -83 57 -28 160 -95 160 -105 0 -4 16 -18 36 -31 19 -13 47 -45 61
-70 14 -25 36 -62 48 -81 13 -19 32 -62 43 -95 18 -57 29 -95 66 -241 13 -47
16 -117 16 -325 0 -305 -12 -405 -63 -560 -39 -120 -43 -128 -104 -222 -90
-139 -302 -256 -518 -287 -38 -5 -242 -10 -452 -10 -368 0 -383 1 -417 21 -19
11 -45 37 -58 57 l-23 37 0 946 0 946 38 46 c23 28 51 50 70 56 43 12 724 13
812 1z m1800 -520 c182 -46 315 -145 382 -280 14 -30 34 -71 44 -90 9 -19 24
-57 33 -85 19 -59 46 -304 46 -415 l0 -77 -492 -1 c-471 -1 -493 -1 -490 -19
1 -10 14 -49 28 -88 23 -65 31 -75 105 -135 87 -71 108 -79 229 -79 85 -1 139
13 224 58 33 17 61 30 62 28 2 -3 33 -98 74 -232 l31 -100 -26 -20 c-14 -11
-81 -34 -148 -52 -154 -41 -308 -45 -452 -12 -118 27 -178 57 -311 156 -84 63
-195 240 -218 348 -40 189 -45 347 -16 501 32 168 68 249 160 363 46 58 144
131 233 175 147 72 350 95 502 56z m1695 6 c122 -26 167 -47 220 -100 51 -50
78 -89 86 -122 4 -16 11 -34 15 -40 5 -6 18 -48 29 -95 27 -108 35 -381 23
-814 -9 -285 -11 -313 -30 -350 -32 -62 -71 -79 -178 -80 -105 0 -137 13 -178
72 l-27 38 -5 495 c-3 315 -10 511 -17 538 -13 52 -74 108 -126 118 -22 4 -65
0 -111 -11 -143 -34 -175 -56 -221 -157 -18 -41 -20 -68 -20 -496 0 -499 1
-490 -63 -551 -31 -29 -45 -34 -114 -43 -70 -9 -84 -8 -135 11 -41 16 -63 31
-78 55 -20 33 -20 42 -18 757 l3 723 50 25 c42 22 63 26 130 26 44 -1 91 -4
104 -8 36 -10 98 -54 117 -82 21 -32 32 -31 74 3 43 35 69 45 190 77 93 24
200 28 280 11z m3065 -17 c44 -12 116 -39 160 -61 153 -77 168 -92 138 -137
-29 -43 -44 -73 -69 -140 -14 -35 -31 -76 -39 -92 l-15 -28 -65 40 c-109 66
-203 94 -321 94 -120 0 -173 -20 -198 -73 -29 -59 -12 -152 27 -152 7 0 31 -9
52 -21 41 -22 54 -26 185 -55 41 -9 91 -24 110 -34 19 -9 47 -20 63 -24 56
-13 183 -81 225 -120 69 -63 122 -190 122 -291 0 -59 -24 -162 -54 -228 -27
-61 -109 -150 -162 -177 -16 -8 -39 -22 -52 -31 -27 -20 -131 -52 -226 -69
-83 -15 -261 -8 -391 15 -99 18 -222 65 -263 100 l-26 22 37 71 c20 38 37 76
37 83 0 17 42 107 62 132 13 17 16 17 58 -7 25 -13 87 -39 139 -56 76 -25 110
-31 181 -31 97 0 177 23 211 62 26 30 25 105 -1 137 -23 28 -94 57 -163 67
-26 4 -50 11 -53 16 -3 5 -13 9 -21 9 -21 0 -177 47 -218 65 -16 7 -47 21 -68
30 -51 24 -170 144 -196 200 -45 95 -62 207 -42 271 5 16 19 61 30 99 17 53
36 87 80 140 31 39 66 75 77 80 10 6 37 22 59 35 48 30 86 43 185 64 137 29
280 27 405 -5z m-1570 -174 c229 -48 395 -221 451 -470 27 -118 25 -340 -4
-459 -61 -245 -225 -414 -447 -461 -38 -8 -117 -15 -175 -15 -188 0 -333 50
-444 151 -144 132 -207 301 -207 555 0 240 57 399 191 535 85 86 180 140 290
163 86 19 258 19 345 1z"/>
<path d="M1650 5791 c13 -9 15 -97 18 -673 2 -364 5 -665 8 -667 10 -10 313
-12 396 -3 67 7 103 18 161 46 95 47 137 92 173 186 28 73 28 80 34 330 3 140
2 300 -2 355 -7 101 -35 231 -58 275 -21 39 -81 90 -145 123 l-60 31 -270 3
c-179 2 -265 0 -255 -6z"/>
<path d="M3689 5316 c-65 -25 -117 -65 -143 -108 -30 -53 -70 -183 -62 -203 5
-13 47 -15 290 -15 167 0 287 4 291 9 3 6 -2 44 -10 86 -21 99 -61 164 -126
206 -44 28 -61 33 -128 36 -48 2 -89 -2 -112 -11z"/>
<path d="M6829 5276 c-100 -41 -160 -98 -214 -205 -76 -153 -74 -446 5 -602
35 -68 113 -143 183 -175 57 -27 71 -29 177 -29 110 0 118 1 182 33 79 39 136
99 177 186 45 96 56 157 55 306 -1 117 -5 146 -28 217 -46 142 -140 243 -260
278 -78 23 -209 19 -277 -9z"/>
<path d="M9175 9123 c-77 -17 -215 -88 -288 -148 -44 -36 -79 -77 -106 -122
-72 -122 -83 -174 -85 -416 l-1 -152 -39 -68 c-36 -66 -182 -240 -234 -281
-14 -11 -43 -47 -64 -80 -39 -60 -40 -62 -35 -134 6 -86 29 -128 85 -160 85
-47 176 -16 224 78 15 30 28 61 28 70 0 16 41 69 105 137 22 23 54 58 70 78
l30 35 64 -30 c35 -17 81 -34 103 -39 38 -9 38 -9 76 45 20 29 45 55 55 58 9
2 43 1 75 -4 73 -10 190 4 279 34 127 43 282 184 321 292 56 155 63 263 26
391 -23 80 -92 211 -122 231 -14 9 -41 32 -61 51 -45 43 -190 115 -259 130
-51 11 -206 13 -247 4z"/>
<path d="M8983 2236 c-29 -18 -61 -39 -70 -47 -23 -19 -119 -76 -210 -125 -40
-21 -82 -46 -94 -55 l-22 -17 21 -33 c100 -161 102 -168 89 -329 -14 -165 46
-332 160 -448 131 -132 342 -202 521 -173 236 38 397 169 477 386 36 98 41
180 20 301 -23 128 -64 206 -153 291 -79 75 -139 111 -245 148 -71 25 -89 27
-170 22 -51 -2 -100 -8 -109 -12 -12 -5 -33 11 -79 59 -34 36 -67 66 -73 65
-6 0 -35 -15 -63 -33z"/>
<path d="M7920 1271 c-91 -31 -212 -100 -266 -152 -57 -56 -123 -173 -150
-264 -22 -77 -22 -227 0 -315 20 -79 83 -193 133 -244 106 -108 298 -187 452
-186 56 1 193 33 263 63 63 27 150 88 192 134 79 88 148 294 141 418 -4 76
-32 171 -78 264 -65 131 -144 196 -326 268 -78 31 -93 33 -195 32 -79 0 -127
-5 -166 -18z"/>
</g>
</svg>
